<svg id="Calque_1" data-name="Calque 1" xmlns="http://www.w3.org/2000/svg" viewBox="0 0 128.76 128.14"><defs><style>.cls-1{fill:#0379d7;}</style></defs><path class="cls-1" d="M556.77,435.92c-1-.24-1.93-.52-2.9-.72-10.28-2.14-10.28-2.14-10.27-12.87,0-3,.37-6.05-.07-9-1.79-12,1.86-22,10.37-30.57a17,17,0,0,1,5.91-4.32c12.07-4.68,24-9.67,36.2-14.08,3.74-1.36,4.91-3.2,4.52-6.86-.26-2.41,0-4.86,0-8.37l20.79,15.12c3.9,2.84,8.09,5.36,11.61,8.61,5,4.59,10.19,5.81,16.74,4,6.06-1.67,12.4-2.33,18.59-3.58,2.34-.47,3.66-.56,3.64,2.61-.11,24.61-.07,49.22,0,73.83a5,5,0,0,1-2.11,4.19c-8.89,7.25-17.77,14.51-26.55,21.89a5.24,5.24,0,0,1-5.79,1c-13.66-4.69-27.43-9.06-41-13.86-3.65-1.29-4.34-.33-4.18,3a34.35,34.35,0,0,1-1,11q-16.73-20.08-33.44-40.16c6.52-.44,12.9.71,19.31,1.63q29.35,4.2,58.73,8.32c2.32.33,4.91,1.3,4.87-3.08-.16-20.62-.12-41.25,0-61.87,0-2.95-1.17-3.27-3.59-2.8-25.6,5-51.19,10-76.83,14.73-3.22.6-3.51,2.1-3.48,4.7C556.77,411,556.75,423.44,556.77,435.92Z" transform="translate(-543.09 -349.15)"/></svg>