<svg id="Calque_1" data-name="Calque 1" xmlns="http://www.w3.org/2000/svg" viewBox="0 0 245.09 279.99"><defs><style>.cls-1{fill:#fff;}</style></defs><path class="cls-1" d="M683.44,471.5c-34.22,0-68.44-.07-102.65.05-8.43,0-14.79-3-18.21-10.87-3.25-7.43-1.3-14,4.15-19.75,21.48-22.74,29.89-50.05,29.45-81-.48-32.73,13.07-58.59,40.81-76.53a76.55,76.55,0,0,1,23.94-10.2c3.63-.87,6-2.11,5.17-6.49a27.2,27.2,0,0,1,0-7c.78-9.07,7.46-15.43,16.41-15.73,9.64-.32,16.56,5.15,18.2,14.38a1.74,1.74,0,0,1,.13.57c-2.5,11.58,4.91,13.94,13.92,17.19,34,12.29,56.72,45.3,56.1,82.72-.51,31,7.91,58.17,28.88,81.24,3.71,4.07,6.76,8.59,6.26,14.55-.85,10-8.38,16.8-18.78,16.82Q735.35,471.54,683.44,471.5Z" transform="translate(-561 -244.01)"/><path class="cls-1" d="M683.56,489c9.91,0,19.83.29,29.72-.13,5.08-.21,5.56,1.54,4.82,5.93-2.82,16.74-18,29.36-35.46,29.2-16.13-.15-31.32-13.43-33.72-29.2-.65-4.23-.22-6.18,4.93-5.94C663.74,489.32,673.66,489,683.56,489Z" transform="translate(-561 -244.01)"/></svg>