<svg id="Calque_1" data-name="Calque 1" xmlns="http://www.w3.org/2000/svg" viewBox="0 0 263.74 264.5"><defs><style>.cls-1{fill:#00aeee;}</style></defs><path class="cls-1" d="M739.53,277.17q0,43.41,0,86.81,0,18.94,0,37.89c0,.51,0,.74-.68.74q-15.47.09-30.94.23l-57,.47-42.17.32c-3.85,0-7.7,0-11.54.1-.54,0-.63-.16-.63-.65q0-52.18,0-104.39c0-.58.19-.7.72-.77,4.88-.69,9.75-1.41,14.62-2.12l14.69-2.15,14.68-2.14,15.58-2.27L672.49,287l14.62-2.13,14.75-2.16,14.62-2.13,15.58-2.27,5.71-.84c.19,0,.4,0,.54-.16l0,0,0-.05Z" transform="translate(-475.83 -277.17)"/><path class="cls-1" d="M475.83,314.55a27.06,27.06,0,0,0,3.91-.45c5-.65,10-1.35,15-2l14.7-2,12.78-1.74L536,306.44l14.89-2,14.71-2,13.87-1.87c1.16-.16,2.31-.3,3.46-.5.55-.09.7,0,.7.61q0,14.26,0,28.54,0,36.94,0,73.9c0,1,.14.84-.86.85l-61.82.34-44.12.24c-.34,0-.68,0-1,0Z" transform="translate(-475.83 -277.17)"/><path class="cls-1" d="M475.83,415.25c2.23,0,4.45,0,6.68,0l51.12.31,40.74.27c2.83,0,5.67.06,8.5.05.58,0,.7.15.7.71q0,30,0,60.08,0,21.25.06,42.5c0,.62-.11.79-.76.69q-6.84-1-13.68-1.9l-13.74-1.88L542,514.21l-13.68-1.88-13.68-1.87L499,508.31l-15.66-2.16-7.26-1a1,1,0,0,0-.24,0Z" transform="translate(-475.83 -277.17)"/><path class="cls-1" d="M668,416.84h62c2.92,0,5.84,0,8.76,0,.66,0,.75.22.75.81q0,30.66,0,61.31,0,31,0,62c0,.8,0,.79-.81.68l-17.33-2.45-20.59-2.92-22.6-3.17q-8-1.14-16-2.28l-16.11-2.26L630,526.25l-17.08-2.39c-5.24-.74-10.48-1.49-15.72-2.2-.53-.08-.53-.35-.53-.75q0-23-.1-46.07-.06-28.66-.11-57.35c0-.84,0-.84.82-.84l56,.06c4.93,0,9.86,0,14.79,0Z" transform="translate(-475.83 -277.17)"/></svg>