<?xml version="1.0" encoding="UTF-8"?>
<svg id="Calque_2" data-name="Calque 2" xmlns="http://www.w3.org/2000/svg" viewBox="0 0 314.11 314.07">
  <defs>
    <style>
      .cls-1 {
        fill: #2a275d;
      }

      .cls-2 {
        fill: #fdfdfd;
      }

      .cls-3 {
        fill: #bd3532;
      }
    </style>
  </defs>
  <g id="Calque_1-2" data-name="Calque 1">
    <path class="cls-2" d="M191.61,121.91V4.31c0-1.1-11.86-2.86-13.59-3.09-17.06-2.23-33.93-1.24-50.82,1.65v119.04H4.99c-1.68,2.85-2.41,6.92-3,10.23-2.19,12.47-2.49,27.48-1.31,40.08.46,4.9,1.5,9.82,2.3,14.67h123.36c.06,0,.86.8.86.86v123.36c16.55,3.26,34.05,3.84,50.81,1.64,1.74-.23,13.6-1.97,13.6-3.08v-122.78h119.62c4.19-21.41,3.83-43.75-1.15-64.99h-118.47ZM104.77,9.2c-26.44,8.55-50.31,25.46-67.87,46.86l67.87,34.22V9.2ZM212.31,10.35v79.94l65.58-33.09c0-1.89-11.88-13.78-14.09-15.81-14.42-13.26-32.85-24.98-51.49-31.04ZM224.67,97.76h46.01l25.55-13c.27-1.18-9.42-17.16-10.67-17.4l-61.75,29.26c-.15.19.65,1.09.86,1.14ZM11.6,98.91h33.07c.09,0,1.68-.56,1.43-1.14l-27.83-13.78c-.9.2-7.57,14-6.67,14.92ZM101.89,207.03l-48.46.7c-11.91,5.27-23.3,11.79-35.11,17.24-.67.31-1.38.48-2.12.46-1.1,1.23,8.37,15.42,9.49,17.83l1.59.49,74.61-36.72ZM306.05,207.03h-31.63c-.24,1.19.58,1.33,1.33,1.84,3.48,2.36,19.18,10.69,22.99,12.09.59.22,1.13.53,1.8.49l5.52-14.41ZM104.77,304.79v-89.71l-72.47,36.53c-.15,2.77,18.41,21.07,21.59,23.84,14.59,12.75,32.53,23.26,50.88,29.34ZM212.31,215.08v88.56c14.59-4.48,28.68-12.93,40.77-22.2,8.84-6.78,22.58-19.14,28.5-28.44.5-.79.97-1.51.94-2.5l-70.21-35.42Z"/>
    <path class="cls-3" d="M191.61,121.91h118.47c4.98,21.24,5.34,43.58,1.15,64.99h-119.62v122.78c0,1.11-11.86,2.85-13.6,3.08-16.77,2.2-34.27,1.61-50.81-1.64v-123.36c0-.06-.8-.86-.86-.86H2.98c-.79-4.85-1.84-9.77-2.3-14.67-1.18-12.6-.88-27.61,1.31-40.08.58-3.31,1.31-7.38,3-10.23h122.21V2.87C144.09-.02,160.96-1.01,178.02,1.22c1.73.23,13.59,1.99,13.59,3.09v117.61Z"/>
    <path class="cls-1" d="M104.77,304.79c-18.35-6.08-36.29-16.6-50.88-29.34-3.18-2.77-21.74-21.08-21.59-23.84l72.47-36.53v89.71Z"/>
    <path class="cls-1" d="M212.31,215.08l70.21,35.42c.03.99-.43,1.71-.94,2.5-5.91,9.3-19.65,21.66-28.5,28.44-12.09,9.27-26.18,17.73-40.77,22.2v-88.56Z"/>
    <path class="cls-1" d="M104.77,9.2v81.09L36.9,56.06c17.55-21.4,41.43-38.31,67.87-46.86Z"/>
    <path class="cls-1" d="M212.31,10.35c18.64,6.06,37.06,17.78,51.49,31.04,2.21,2.03,14.09,13.91,14.09,15.81l-65.58,33.09V10.35Z"/>
    <path class="cls-3" d="M101.89,207.03l-74.61,36.72-1.59-.49c-1.12-2.41-10.59-16.6-9.49-17.83.74.02,1.45-.15,2.12-.46,11.82-5.45,23.2-11.97,35.11-17.24l48.46-.7Z"/>
    <path class="cls-3" d="M224.67,97.76c-.21-.05-1.01-.95-.86-1.14l61.75-29.26c1.25.24,10.94,16.23,10.67,17.4l-25.55,13h-46.01Z"/>
    <path class="cls-3" d="M11.6,98.91c-.9-.92,5.77-14.71,6.67-14.92l27.83,13.78c.25.58-1.34,1.14-1.43,1.14H11.6Z"/>
    <path class="cls-3" d="M306.05,207.03l-5.52,14.41c-.66.05-1.21-.27-1.8-.49-3.82-1.4-19.51-9.74-22.99-12.09-.74-.5-1.56-.65-1.33-1.84h31.63Z"/>
  </g>
</svg>