<?xml version="1.0" encoding="UTF-8"?>
<svg id="Calque_2" data-name="Calque 2" xmlns="http://www.w3.org/2000/svg" viewBox="0 0 355.4 351.4">
  <defs>
    <style>
      .cls-1 {
        fill: #e9332b;
      }

      .cls-2 {
        fill: #fefdfe;
      }

      .cls-3 {
        fill: #244189;
      }
    </style>
  </defs>
  <g id="Calque_1-2" data-name="Calque 1">
    <path class="cls-2" d="M119.69,10.09C16.43,45.16-30.18,165.93,23.17,262.11c20.2,36.42,56.28,68,96.52,79.98V10.09ZM242.69,339.09c28.95-10.62,55.71-31.49,74.41-56.09,64.4-84.7,39.04-208.43-53.74-260.09-6.14-3.42-13.91-7.76-20.67-8.83v325ZM0,175.7C0,78.66,79.56,0,177.7,0s177.7,78.66,177.7,175.7-79.56,175.7-177.7,175.7S0,272.74,0,175.7Z"/>
    <path class="cls-3" d="M119.69,10.09v332c-40.24-11.98-76.32-43.55-96.52-79.98C-30.18,165.93,16.43,45.16,119.69,10.09Z"/>
    <path class="cls-1" d="M242.69,339.09V14.09c6.76,1.07,14.53,5.41,20.67,8.83,92.78,51.65,118.14,175.38,53.74,260.09-18.7,24.6-45.47,45.47-74.41,56.09Z"/>
  </g>
</svg>