<svg id="Calque_1" data-name="Calque 1" xmlns="http://www.w3.org/2000/svg" viewBox="0 0 330.27 325.95"><defs><style>.cls-1{fill:#e1e0e0;}.cls-2{fill:#080909;}.cls-3{fill:#fcfcfc;}.cls-4{fill:#fff;}</style></defs><path class="cls-1" d="M370,581.68c0,.91,0,1.81,0,2.72h-3l0-2.73Z" transform="translate(-153.94 -260.5)"/><path class="cls-2" d="M262.85,579.9c-5.32-2-10.51-4.28-15.72-6.52-8.11-3.5-15.32-8.61-22.91-13a46.5,46.5,0,0,0-9.15-7c-19.33-16.74-35.67-36-45.82-59.56C145.09,437.7,149.42,383.71,183,332.36c2-3,3.29-6.5,6-9a9.75,9.75,0,0,0,4-4.83l19-19,1.18-.91,7.8-6.12a2.66,2.66,0,0,0,2.39-1.73c13.15-8.43,26.58-16.38,41.56-21.15,50.56-16.11,98.62-11.12,143.8,17.41a6.4,6.4,0,0,0,1.39.51l.79.63,5,3.41a4.36,4.36,0,0,0,2.92,2.11c26.8,21.12,46.13,47.56,57,80,21.32,63.63.53,135.35-51.25,178.21-13.74,11.37-29.2,19.62-45.11,27.24-1.09.52-2.57.24-3.55,1.26-.36-.45-.71-.57-1,0l-2.07.7-.91.31-2,.27" transform="translate(-153.94 -260.5)"/><path class="cls-1" d="M215.07,553.39a46.5,46.5,0,0,1,9.15,7l-4.17.07h0C219.26,557.46,214.51,557.31,215.07,553.39Z" transform="translate(-153.94 -260.5)"/><path class="cls-1" d="M409.15,375.09a7.51,7.51,0,0,1,3.36,4.15C408,380.57,408.65,377.78,409.15,375.09Z" transform="translate(-153.94 -260.5)"/><path class="cls-1" d="M193,318.54a9.75,9.75,0,0,1-4,4.83C188.91,320.55,189.45,318.28,193,318.54Z" transform="translate(-153.94 -260.5)"/><path class="cls-1" d="M220.05,560.41c-.13,1.17-.39,2.34-1.74,2.58-.78.13-1.16-.61-1-1.28.34-1.55,1.71-1.12,2.76-1.29Z" transform="translate(-153.94 -260.5)"/><path class="cls-1" d="M418.91,293.66a4.36,4.36,0,0,1-2.92-2.11C417.54,291.47,418.88,291.65,418.91,293.66Z" transform="translate(-153.94 -260.5)"/><path class="cls-1" d="M223.41,290.74a2.66,2.66,0,0,1-2.39,1.73C221.12,290.93,222,290.5,223.41,290.74Z" transform="translate(-153.94 -260.5)"/><path class="cls-1" d="M407.66,371.48c.07.7.13,1.39.19,2.08-.7,0-1.41-.14-1.48-.94S407,371.55,407.66,371.48Z" transform="translate(-153.94 -260.5)"/><path class="cls-1" d="M411,288.14l-.79-.63Z" transform="translate(-153.94 -260.5)"/><path class="cls-1" d="M213.22,298.59l-1.18.91Z" transform="translate(-153.94 -260.5)"/><path class="cls-1" d="M408.33,368.58l-.38,1C408.08,369.22,408.21,368.9,408.33,368.58Z" transform="translate(-153.94 -260.5)"/><path class="cls-1" d="M360,575.35a3.82,3.82,0,0,1,.46.62c0,.07-.12.23-.18.36a4.49,4.49,0,0,1-.38-.62C359.86,575.62,360,575.47,360,575.35Z" transform="translate(-153.94 -260.5)"/><path class="cls-1" d="M375,580.4c.33-.58.68-.46,1,0Z" transform="translate(-153.94 -260.5)"/><path class="cls-1" d="M363.93,581.38c.35-.46.69-.46,1,0Z" transform="translate(-153.94 -260.5)"/><path class="cls-1" d="M372,581.41l.91-.31Z" transform="translate(-153.94 -260.5)"/><path class="cls-3" d="M266.07,581s75.25,11.9,98.86.39" transform="translate(-153.94 -260.5)"/><path class="cls-4" d="M370,581.68h-3.07l-2-.24c-.31-.51-.65-.51-1,0l-3.65-5c.06-.13.22-.29.18-.36a3.82,3.82,0,0,0-.46-.62c0-16.56.07-33.13,0-49.7a35.3,35.3,0,0,0-.81-5.35,1.77,1.77,0,0,0-.18-2c-.4-7.8-4.08-14.14-9.47-20.34,7.6-1.49,14.76-2.32,21.72-4.2a89,89,0,0,0,21.87-9.43c18.65-11,26.57-28.6,29.67-48.9,2.14-14.05,2.54-28.15-2.51-41.83a48.84,48.84,0,0,0-7.81-14.37,7.51,7.51,0,0,0-3.36-4.15l-1.3-1.53-.19-2.08c.1-.64.2-1.29.29-1.94.13-.32.26-.64.38-1,4.69-12.95,2.28-25.5-2.08-37.95-.68-1.95-2.24-2.17-4-2.22A34.45,34.45,0,0,0,389.11,331a109.1,109.1,0,0,0-24.87,12.53,8.91,8.91,0,0,1-7.92,1.36,151.59,151.59,0,0,0-74.1-.07,8.84,8.84,0,0,1-7.9-1.24c-9.09-6.3-19.21-10.53-29.7-13.89-.63-.2-1.26-.41-1.91-.56-8.65-2-10.12-1.24-12.66,7.41-3.2,10.93-3.64,21.91-.09,32.88.54,1.69,1.07,3.17-.51,5-16.6,19.14-17.7,41.58-13.22,65,3.32,17.33,10.44,32.61,25.57,43,13.24,9.08,28.24,13.09,43.92,15.08.66.08,1.31.19,1.93.28.81,1.51-.48,2.17-1.16,3-3.32,3.88-6,8.36-6.5,13.28-.66,6.51-4.77,7.78-9.89,8.91-18.3,4-29.52-.61-39.31-16.47-5.5-8.9-13.15-14.9-23.62-16.76-3.06-.55-7.24-1.19-8.58,1.87s2.23,5.36,4.68,6.79c10.07,5.91,15.5,15.24,19.65,25.61,4.26,10.65,12.35,16.54,23.34,18.76,9.38,1.89,18.86,2.44,28.28.57,3.17-.63,3.7.25,3.67,3-.07,8.66.1,17.32.07,26,0,7.72-4.75,11.3-12.21,8.8-1.08-.36-2.15-.74-3.22-1.14" transform="translate(-153.94 -260.5)"/><path class="cls-4" d="M359,518.31a1.77,1.77,0,0,1,.18,2Z" transform="translate(-153.94 -260.5)"/></svg>