<svg id="Calque_1" data-name="Calque 1" xmlns="http://www.w3.org/2000/svg" viewBox="0 0 290.29 282.83"><defs><style>.cls-1{fill:#320100;}.cls-2{fill:#fa9803;}</style></defs><path class="cls-1" d="M608.27,550.72c-30.55,0-61.1-.37-91.64.1-33.69.52-54.34-26.32-54.06-54,.59-58.41.17-116.83.18-175.24,0-31.67,22-53.57,53.81-53.58q91.34,0,182.66,0c31.75,0,53.59,21.89,53.61,53.72q0,87.63,0,175.24c0,31.93-21.7,53.68-53.54,53.74Q653.78,550.79,608.27,550.72Zm34-83c-2.49-3.22-2.1-6.17-3-8.82q-20.29-57.11-40.43-114.27c-1.12-3.19-2.71-4.58-6.23-4.44a186.92,186.92,0,0,1-21,0c-5.94-.45-8.78,1-8.46,7.53.13,2.72-1.27,5.58-2.21,8.3q-8.34,24.27-16.79,48.5c-6.63,19.08-13.12,38.21-20,57.2-1.88,5.17-.73,6.49,4.51,6.11a122.69,122.69,0,0,1,15.46,0c3.54.19,5.19-1.17,6.15-4.48,2.13-7.32,4.65-14.53,6.86-21.83.83-2.73,2.15-3.91,5.23-3.87q18.57.27,37.14,0c3,0,4.39,1,5.29,3.81,2.39,7.45,5.12,14.81,7.53,22.26.87,2.67,2,4.16,5.17,4.09C625.23,467.6,633.05,467.72,642.29,467.72Zm39.37-47.82c0-14.43-.15-28.86.09-43.28.08-4.37-1.3-5.81-5.62-5.57-5.75.33-11.54.19-17.3,0-3.06-.09-4.47.77-4.46,4.14q.14,44.2,0,88.41c0,3.22,1.15,4.39,4.34,4.3,5.76-.16,11.56-.36,17.3.05,4.87.35,5.83-1.62,5.74-6.05C681.5,447.93,681.66,433.91,681.66,419.9Zm-13-89.21c-8.81-.16-15.41,6.23-15.47,14.95-.06,9.18,5.88,15.33,14.88,15.4,8.84.08,15.06-6.2,15.12-15.24C683.27,337,677.33,330.84,668.69,330.69Z" transform="translate(-462.57 -268)"/><path class="cls-2" d="M642.29,467.72c-9.24,0-17.06-.12-24.87.06-3.12.07-4.3-1.42-5.17-4.09-2.41-7.45-5.14-14.81-7.53-22.26-.9-2.78-2.27-3.85-5.29-3.81q-18.57.27-37.14,0c-3.08,0-4.4,1.14-5.23,3.87-2.21,7.3-4.73,14.51-6.86,21.83-1,3.31-2.61,4.67-6.15,4.48a122.69,122.69,0,0,0-15.46,0c-5.24.38-6.39-.94-4.51-6.11,6.88-19,13.37-38.12,20-57.2q8.42-24.24,16.79-48.5c.94-2.72,2.34-5.58,2.21-8.3-.32-6.49,2.52-8,8.46-7.53a186.92,186.92,0,0,0,21,0c3.52-.14,5.11,1.25,6.23,4.44q20.1,57.18,40.43,114.27C640.19,461.55,639.8,464.5,642.29,467.72ZM580.68,363.83c-5,16.34-9.52,31.26-14.23,46.11-.86,2.72,0,3.18,2.37,3.17,8.83-.06,17.65,0,27.13,0Z" transform="translate(-462.57 -268)"/><path class="cls-2" d="M681.66,419.9c0,14-.16,28,.09,42,.09,4.43-.87,6.4-5.74,6.05-5.74-.41-11.54-.21-17.3-.05-3.19.09-4.35-1.08-4.34-4.3q.12-44.2,0-88.41c0-3.37,1.4-4.23,4.46-4.14,5.76.15,11.55.29,17.3,0,4.32-.24,5.7,1.2,5.62,5.57C681.51,391,681.66,405.47,681.66,419.9Z" transform="translate(-462.57 -268)"/><path class="cls-2" d="M668.69,330.69c8.64.15,14.58,6.33,14.53,15.11-.06,9-6.28,15.32-15.12,15.24-9-.07-14.94-6.22-14.88-15.4C653.28,336.92,659.88,330.53,668.69,330.69Z" transform="translate(-462.57 -268)"/><path class="cls-1" d="M580.68,363.83,596,413.08c-9.48,0-18.3,0-27.13,0-2.41,0-3.23-.45-2.37-3.17C571.16,395.09,575.66,380.17,580.68,363.83Z" transform="translate(-462.57 -268)"/></svg>