<svg id="Calque_1" data-name="Calque 1" xmlns="http://www.w3.org/2000/svg" viewBox="0 0 415.92 415.98"><defs><style>.cls-1{fill:#d64a34;}</style></defs><path class="cls-1" d="M595.73,203.32c8-2.51,15.87-2.67,23.72.47,3.91,3.44,8,6.68,11.71,10.35q71.61,71.48,143.06,143.1c13.23,13.29,27.32,25.76,39.15,40.4,3.12,7.87,2.86,15.79.39,23.75-3.62,4.13-7,8.49-10.9,12.37Q737.07,499.7,671.09,565.47c-17,16.86-32.92,34.8-51.45,50.07-8,2.5-15.87,2.65-23.71-.47-4.13-3.66-8.47-7.11-12.36-11q-85-84.85-169.84-169.84c-4.11-4.12-7.77-8.68-11.65-13-3.13-7.85-2.95-15.76-.46-23.71a94.21,94.21,0,0,1,6.34-7.83q60-60.19,120.11-120.38c3.22-3.23,4.89-3.09,7.95.05,12.9,13.25,26,26.29,39.17,39.26,2.66,2.62,3.42,4.81,2.57,8.78-2.89,13.5.72,25.41,12.38,33.28,5.22,3.52,6.27,7.25,6.24,12.85q-.28,47.61,0,95.21c.05,6.25-1.09,10.4-6.81,14.37-13,9-16.39,25.74-9.38,39.51a31.37,31.37,0,0,0,36.93,16.31c12.09-3.4,19.76-11.48,22.45-23.41,2.78-12.27-.36-23.58-10.59-31.47-4.76-3.67-6.19-7.39-6.14-13.09.24-31.43.08-62.86.18-94.29,0-2.53-1.15-5.42,1.93-8.58,11.28,11.52,22.22,23.11,33.67,34.17,4.59,4.43,6.25,8.49,5.42,15.15-2.94,23.77,17.84,41.51,39.94,34.8,16.45-5,26.07-20.9,22.57-37.33a31.46,31.46,0,0,0-35.9-24.52c-5.06.79-8-.87-11.24-4.16-11.41-11.68-22.89-23.3-34.67-34.61-3.91-3.75-5.23-7.37-4.81-12.87,1.71-22.36-13.4-37-35.67-35.12-3.42.29-6.37.76-9.26-2.19q-20.35-20.82-41.15-41.2c-2.54-2.5-2.7-4.07,0-6.59C568,230.36,580.48,215.4,595.73,203.32Z" transform="translate(-399.74 -201.44)"/></svg>