<svg id="Calque_1" data-name="Calque 1" xmlns="http://www.w3.org/2000/svg" viewBox="0 0 595.28 841.89"><defs><style>.cls-1{fill:#fff;}</style></defs><path class="cls-1" d="M356,391.33c.25,42.9-35.22,78.92-77.93,79.12-44.44.22-79.93-34.71-80.1-78.85-.17-43.11,35-78.89,77.86-79.13C320.2,312.23,355.74,347.19,356,391.33ZM277,431c4,0,8.1.09,12.15,0,3-.09,5.53-1.34,6.81-4.29a7.34,7.34,0,0,0-1.15-8,7.55,7.55,0,0,0-6.82-2.52c-3.31.27-3.65-1.18-3.6-3.91.16-7.34.11-14.68,0-22,0-5.31-2.7-8.35-7.49-8.58a98.06,98.06,0,0,0-9.85,0c-5.52.29-8.71,5.22-6.73,10.19A6.13,6.13,0,0,0,266,396.1c3.05.1,3.7,1.55,3.5,4.3-.23,3.16-.06,6.35-.06,9.52,0,5.51,0,5.51-5.15,6.34-4.78.77-7.29,3.62-7,7.89s3.38,6.75,8.13,6.8C269.3,431,273.13,431,277,431Zm-.09-59.24a9.88,9.88,0,1,0,0-19.75,9.44,9.44,0,0,0-9.72,9.72C267.08,367.54,271.11,371.69,276.88,371.72Z"/></svg>