<svg id="Calque_1" data-name="Calque 1" xmlns="http://www.w3.org/2000/svg" viewBox="0 0 249.17 224.04"><defs><style>.cls-1{fill:#724393;}.cls-2{fill:#724393;}</style></defs><path class="cls-1" d="M206.91,219.1c.86-40.51,32.41-65.48,61.13-68.51,40.35-4.27,77.89,28.43,75.76,71.85a66.57,66.57,0,0,1-13.25,37c-6.22,8.43-12.56,16.78-17.6,26a74.47,74.47,0,0,0-4.07,9.08c-.67,1.76,0,4.67-2.43,5a32.35,32.35,0,0,1-9.92,0c-2.26-.34-.77-2.52-.51-3.75,2.49-11.69,9.05-21.32,15.73-30.88,5.42-7.75,11.43-15.14,15.33-23.86,17.25-38.59-14.2-82.43-56.22-78.37-43.94,4.24-66.27,51.41-41.61,88.08,7.51,11.16,16.25,21.5,21.85,33.89a66.7,66.7,0,0,1,4,11.79c.53,2.19.12,3.57-2.58,3.4-2.16-.13-4.33-.06-6.49,0-1.7,0-2.78-.48-3.22-2.34C239.8,285,232,275.15,224.4,265.3c-10.12-13.14-16.9-27.39-17.39-44.22C207,219.92,206.9,218.76,206.91,219.1Z" transform="translate(-150.77 -125.62)"/><path class="cls-2" d="M275.55,312.8c8.47,0,16.95.11,25.42-.05,3.88-.08,5.28,1.62,5.43,5.32.68,17.38-13.54,31.77-31.37,31.59-17.54-.17-31.43-14.72-30.57-31.88.17-3.52,1.54-5.08,5.17-5C258.27,312.89,266.91,312.8,275.55,312.8ZM258,325c4,9.28,10.85,13.28,20,12.16,7.4-.91,13.14-5.81,14.18-12.16Z" transform="translate(-150.77 -125.62)"/><path class="cls-1" d="M359.06,129.82c1,2.5.13,4.58-1.58,6.38-6.05,6.38-12.1,12.77-18.21,19.09-2.58,2.67-5.44,3.88-8.69.94s-2.75-6.12,0-9.09c6-6.41,12-12.87,18.19-19.1C352.68,124.14,357.41,125.12,359.06,129.82Z" transform="translate(-150.77 -125.62)"/><path class="cls-1" d="M191.73,129.82c-1,2.5-.13,4.58,1.58,6.38,6.05,6.38,12.1,12.77,18.21,19.09,2.57,2.67,5.44,3.88,8.69.94s2.75-6.12,0-9.09c-6-6.41-12-12.87-18.19-19.1C198.11,124.14,193.38,125.12,191.73,129.82Z" transform="translate(-150.77 -125.62)"/><path class="cls-2" d="M381.55,224.88c-4,0-8,.08-12,0s-6.44-2.13-6.38-6.13,2.37-5.94,6.48-5.9q12,.13,24,0c4.14,0,6.33,2,6.31,6s-2.48,6-6.4,6.08S385.55,224.88,381.55,224.88Z" transform="translate(-150.77 -125.62)"/><path class="cls-2" d="M168.9,224.89c-3.82,0-7.65.09-11.47,0-4.22-.14-7-2.78-6.63-6.41.38-4,2.67-5.72,6.72-5.65,7.81.14,15.63.1,23.44,0,4,0,6.39,1.53,6.51,5.72.14,4.5-2.58,6.21-6.6,6.32S172.89,224.89,168.9,224.89Z" transform="translate(-150.77 -125.62)"/></svg>