<svg id="Calque_1" data-name="Calque 1" xmlns="http://www.w3.org/2000/svg" viewBox="0 0 595.28 841.89"><defs><style>.cls-1{fill:#2a4093;}.cls-2{fill:#724494;}</style></defs><path class="cls-1" d="M328.05,428.2l-58.2,31.16A106,106,0,0,0,368.5,526.5v-64A41,41,0,0,1,328.05,428.2Z"/><path class="cls-1" d="M262.5,420.5a106.26,106.26,0,0,0,4.08,29.22l54.1-29-54.5-28A105.81,105.81,0,0,0,262.5,420.5Z"/><path class="cls-1" d="M269.31,383.07l59,30.34A41,41,0,0,1,368.5,380.5v-66A106,106,0,0,0,269.31,383.07Z"/><path class="cls-2" d="M252.69,381a122.64,122.64,0,0,1,28.72-46.13V314.5H226.5v124Z"/><path class="cls-2" d="M246,421c0-.41,0-.83,0-1.24L226.5,462.59V527.5h81.44A122.44,122.44,0,0,1,246,421Z"/></svg>