<svg id="Calque_1" data-name="Calque 1" xmlns="http://www.w3.org/2000/svg" viewBox="0 0 174.7 216.62"><defs><style>.cls-1{fill:#2a4092;}.cls-2{fill:#95d4f5;}</style></defs><path class="cls-1" d="M247.79,340q0-36.2,0-72.4c0-16.85,10.58-27.46,27.41-27.47q59.93,0,119.83,0c16.72,0,27.43,10.74,27.43,27.51,0,48.26,0,113.53,0,161.8,0,16.95-10.45,27.3-27.45,27.3H274.68c-16.3,0-26.86-10.51-26.88-26.84C247.77,405.57,247.79,364.27,247.79,340Zm12.94-79.07c-1.69,2-1,4.47-1,6.71-.05,48.28-.05,113.56,0,161.84,0,2.26-.51,4.69,1,6.75,2.52,7.78,8.86,8.54,15.65,8.54q58.69,0,117.4,0a32.89,32.89,0,0,0,6.95-.56c4.77-1.05,8.08-3.87,9-8.86a43.94,43.94,0,0,0,.79-7.92c.05-47,.05-110.93,0-157.89,0-13-4.33-17.36-17.37-17.38q-39.22,0-78.44,0c-13.15,0-26.31-.1-39.46,0C268.82,252.22,262.86,253.49,260.73,260.9Z" transform="translate(-247.78 -240.09)"/><path class="cls-2" d="M260.73,260.9c0,52.76,0,122.53,0,175.3-1.54-2.06-1-4.49-1-6.75,0-48.28,0-113.56,0-161.84C259.69,265.37,259,262.92,260.73,260.9Z" transform="translate(-247.78 -240.09)"/><path class="cls-1" d="M384.59,315.21A49.54,49.54,0,0,1,335.41,365c-27.49.24-50-22.35-49.94-50.14,0-27.49,22.45-50.08,49.82-49.7C366.93,265.56,386,292.45,384.59,315.21Zm-49.47,5.84c-2.34,0-4.67.06-7,0-2-.07-2.58.77-2.36,2.72,1,9,2.75,17.71,7.2,25.74,1.54,2.77,2.64,3.08,4.27.09a61,61,0,0,0,6.18-18.34C345.35,321,345.39,321,335.12,321.05Zm-.2-12.05a50.25,50.25,0,0,1,5.49,0c3.24.36,4.44-.62,3.94-4.11-1.17-8.1-2.78-16-6.66-23.35-.67-1.28-1-3.24-2.7-3.21-1.4,0-1.66,1.85-2.3,3-3.28,5.71-4.9,12-5.92,18.39C325.31,309,325.37,309,334.92,309Zm16.22-27.94a129.27,129.27,0,0,1,4.38,17.58c2,11.45,2.09,11.41,13.92,10.4,2.09-.18,3-.52,2.37-3C368.75,295.1,362.5,286.8,351.14,281.06Zm0,67.88c9.74-4.82,15.64-11.49,19.09-20.37,2.91-7.51,2.85-7.53-4.93-7.53-2,0-4,.09-6,0s-2.72.75-2.87,2.57A110.76,110.76,0,0,1,351.16,348.94Zm-32.93-1c.44-2.79-1.38-5.05-1.73-7.63-.37-2.78-1.35-5.47-1.8-8.24-1.88-11.61-1.84-11.62-13.65-11-.49,0-1,0-1.49,0-1.38,0-1.46.85-1.41,2C298.47,331.56,309.44,345.27,318.23,347.94Zm-.1-65.79c-10.73,4.94-16.95,13.43-19.87,24.54-.2.75-.52,2,.53,2.07,4.62.15,9.25.12,13.88,0,.88,0,.81-1.27.91-2.08A168.77,168.77,0,0,1,318.13,282.15Z" transform="translate(-247.78 -240.09)"/><path class="cls-1" d="M335.64,402.2h41.91c3.92,0,6.91,1.09,7.05,5.76s-2.59,6.15-6.61,6.2c-6.15.07-12.3,0-18.46,0H293.68c-2.67,0-5.45.19-7.14-2.49a6.38,6.38,0,0,1-.29-6.66c1.34-2.42,3.85-2.85,6.49-2.85C307,402.22,321.34,402.2,335.64,402.2Z" transform="translate(-247.78 -240.09)"/></svg>