<svg id="Calque_1" data-name="Calque 1" xmlns="http://www.w3.org/2000/svg" viewBox="0 0 86.79 86.84"><defs><style>.cls-1{fill:#68388d;}</style></defs><path class="cls-1" d="M360.88,433.26l-16.27,14.61q-15.21,13.65-30.39,27.33a2.39,2.39,0,0,1-3,.49c-5-2.12-10-4.16-15-6.18-2.32-.94-3.82-2.49-4-5.07s1.12-4.4,3.37-5.68q37.25-21.17,74.46-42.39c2.22-1.26,4.38-1.63,6.58-.08s2.64,3.63,2.24,6.2q-5.37,34.45-10.63,68.93c-.64,4.17-4.2,6.13-8.19,4.49-6.22-2.55-12.43-5.11-18.61-7.75-1.19-.51-1.81-.46-2.57.72-2.42,3.81-5,7.51-7.51,11.29-1,1.45-2.13,2.3-3.92,1.79a3.47,3.47,0,0,1-2.69-3.62c0-5.43,0-10.86,0-16.28a6.09,6.09,0,0,1,1.58-3.75q16.83-21.6,33.62-43.21c.39-.51.77-1,1.15-1.55Z" transform="translate(-292.25 -415.27)"/></svg>