<svg id="Calque_1" data-name="Calque 1" xmlns="http://www.w3.org/2000/svg" viewBox="0 0 248.03 293.2"><defs><style>.cls-1{fill:#010202;}.cls-2{fill:#da7f12;}.cls-3{fill:#f4f2f2;}.cls-4{fill:#fdfdfd;}</style></defs><path class="cls-1" d="M657.79,285.32c3.14,5.87,5.86,11.85,7.19,18.49,1.54,7.71.14,15.27-.3,22.9-1.18,20.4,4.49,38.42,19,53.16,8.24,8.36,15.67,17.23,20.78,27.91,8.44,17.63,12.33,36,9.81,55.55a3.52,3.52,0,0,0,.32,2.56c5.53,8.7,4.92,17.43,0,26.15-.56.54-1.14,1-1.66,1.61-6,6.48-13.34,9.11-21.93,7.21-9-2-14.78-7.73-17.16-16.66-2.12-7.93.38-14.82,5.22-21.07,2.36-1.26,2.88-3.09,2.63-5.79-1.43-15.73-5.28-30.9-10.36-45.77-7-20.63-15.82-40.4-30.3-57.12,4.44-6.92,4.28-8-2-13.4-2.23-1.94-4.91-3.34-6.87-5.61,7.2-4.77,9.84-12.88,6.9-21.26-1.86-5.31-5.91-8.75-10.2-8.7s-8.12,3.39-10,8.53a22.05,22.05,0,0,0-.35,12.77c-5.93-2.58-11.87-5-18.28-1.43,1-6.29.36-12.2-4.27-17a9,9,0,0,0-13.1-.43c-8.18,7.39-6.46,22.34,3.2,27.72-3.46,2.81-6.2,6.3-9,9.69a3.7,3.7,0,0,0-.24,4.85c2,3.15,4.85,5.4,7.65,7.72-1.33,1.78-2.73,3.51-4,5.33-10.58,15.17-17.91,31.91-23.71,49.38-4.73,14.28-8.41,28.78-9.87,43.79-.14,1.44-.39,2.86.77,4.09,10.76,11.42,21.39,23,35.95,29.84,2.51,1.18,5.32,2.35,5.44,5.69.13,3.58-2.48,5.5-5.17,7.2-.84.53-1.78.89-2.67,1.35-3.53,1.85-7.53,1.63-11.28,2.49q-9.6-15.22-19.2-30.45c-2.13-3.37-4.13-6.85-6.52-10a8.9,8.9,0,0,0-14.72.1c-1.12,1.52-2,3.17-3.06,4.75-1.29-13.79-1.36-27.49,2.21-41.06a94.91,94.91,0,0,1,19.44-37.54c5.24-6.2,10.64-12.23,14.33-19.58,7.88-15.71,9-32,5.2-49-5.34-24.1,5.91-46.49,28.33-56.9a48.66,48.66,0,0,1,56.59,12C654.34,281.26,656.05,283.3,657.79,285.32Z" transform="translate(-483.62 -262.89)"/><path class="cls-2" d="M526.49,471.39c1-1.58,1.94-3.23,3.06-4.75a8.9,8.9,0,0,1,14.72-.1c2.39,3.18,4.39,6.66,6.52,10Q560.41,491.78,570,507c3.94,6.32,7.46,12.92,12.33,18.62,4.22,6.59,5.62,13.46,2.13,20.83-2.45,3-4.83,6.08-8.49,7.81a20,20,0,0,1-12.69,1.37q-34.51-6.6-69-13.19c-1.3-.25-2.57-.64-3.86-1-4-2.83-6.83-6.27-6.74-11.52a13,13,0,0,1,2.91-7.65c4.46-5.93,6.76-12.63,8-19.89,1.15-6.93,5.2-11.75,12-13.73C515.89,486,522.21,479.91,526.49,471.39Z" transform="translate(-483.62 -262.89)"/><path class="cls-2" d="M679.11,463.13c-4.84,6.25-7.34,13.14-5.22,21.07,2.38,8.93,8.16,14.66,17.16,16.66,8.59,1.9,16-.73,21.93-7.21.52-.57,1.1-1.07,1.66-1.61a14.86,14.86,0,0,1,6.1,10.29,45.49,45.49,0,0,0,7.86,19.93c6.28,8.9,2.52,18.16-8.25,20.27-22.77,4.47-45.59,8.76-68.39,13.08-9.79,1.85-16.86-2-21.57-10.56-1.62-4.48-1.21-9-.53-13.59.32-.45.67-.88,1-1.35L670.32,468C672.36,464.78,675.05,462.7,679.11,463.13Z" transform="translate(-483.62 -262.89)"/><path class="cls-1" d="M629.86,531.46c-.68,4.56-1.09,9.11.53,13.59-11.27-1.94-22.57-2.84-34-1.22-4.07.58-7.95,1.87-12,2.64,3.49-7.37,2.09-14.24-2.13-20.83a16.14,16.14,0,0,1,4.31,1.62,62.61,62.61,0,0,0,23.72,5.66C617,533.71,623.42,532.75,629.86,531.46Z" transform="translate(-483.62 -262.89)"/><path class="cls-3" d="M629.86,531.46c-6.44,1.29-12.91,2.25-19.51,1.46,0-1.89.15-3.77.15-5.66q0-76.42,0-152.84c0-1.67.09-3.33.13-5,1.93-.47,3.89-.85,5.79-1.43a73.88,73.88,0,0,0,24.65-13.55c14.48,16.73,23.26,36.5,30.3,57.13,5.08,14.87,8.93,30,10.36,45.77.25,2.7-.27,4.53-2.63,5.79-4.06-.43-6.75,1.65-8.79,4.85l-39.5,62.13C630.53,530.58,630.18,531,629.86,531.46Z" transform="translate(-483.62 -262.89)"/><path class="cls-3" d="M610.64,369.42c0,1.67-.13,3.33-.13,5q0,76.43,0,152.84c0,1.89-.1,3.77-.15,5.66a62.61,62.61,0,0,1-23.72-5.66,16.14,16.14,0,0,0-4.31-1.62c-4.87-5.7-8.39-12.3-12.33-18.62,3.75-.86,7.75-.64,11.28-2.49.89-.46,1.83-.82,2.67-1.35,2.69-1.7,5.3-3.62,5.17-7.2-.12-3.34-2.93-4.51-5.44-5.69-14.56-6.86-25.19-18.42-35.95-29.84-1.16-1.23-.91-2.65-.77-4.09,1.46-15,5.14-29.51,9.87-43.79,5.8-17.47,13.13-34.21,23.71-49.38,1.27-1.82,2.67-3.55,4-5.33C592.74,362.84,600.85,368,610.64,369.42Z" transform="translate(-483.62 -262.89)"/><path class="cls-2" d="M610.64,369.42c-9.79-1.4-17.9-6.58-26.11-11.56-2.8-2.32-5.67-4.57-7.65-7.72a3.7,3.7,0,0,1,.24-4.85c2.84-3.39,5.58-6.88,9-9.69a3.11,3.11,0,0,0,2-2l5.79-4.51a23.13,23.13,0,0,0,6.38-3.7c6.41-3.61,12.35-1.15,18.28,1.43a16.24,16.24,0,0,0,6.14,3.57,16.21,16.21,0,0,0,5.16,3.29,3.22,3.22,0,0,0,2.34,1.8c2,2.27,4.64,3.67,6.87,5.61,6.24,5.41,6.4,6.48,2,13.4A74,74,0,0,1,616.43,368C614.53,368.57,612.57,369,610.64,369.42Z" transform="translate(-483.62 -262.89)"/><path class="cls-4" d="M632.25,335.44a3.22,3.22,0,0,1-2.34-1.8c4.34-3,5.78-10,3.24-15.57-.82-1.81-2-3.38-4.1-3.41s-3.3,1.58-4.12,3.37c-1.86,4.07-1.39,8.2-.18,12.32a16.24,16.24,0,0,1-6.14-3.57A22.05,22.05,0,0,1,619,314c1.87-5.14,5.75-8.47,10-8.53s8.34,3.39,10.2,8.7C642.09,322.56,639.45,330.67,632.25,335.44Z" transform="translate(-483.62 -262.89)"/><path class="cls-4" d="M600.33,325.35a23.13,23.13,0,0,1-6.38,3.7c1-4,1.09-7.94-.89-11.68-1.68-3.18-4.53-3.64-6.69-1.22-4,4.48-3,13.65,1.79,17.41a3.11,3.11,0,0,1-2,2c-9.66-5.38-11.38-20.33-3.2-27.72a9,9,0,0,1,13.1.43C600.69,313.15,601.32,319.06,600.33,325.35Z" transform="translate(-483.62 -262.89)"/><path class="cls-1" d="M624.75,330.35c-1.21-4.12-1.68-8.25.18-12.32.82-1.79,2-3.41,4.12-3.37s3.28,1.6,4.1,3.41c2.54,5.59,1.1,12.53-3.24,15.57A16.21,16.21,0,0,1,624.75,330.35Z" transform="translate(-483.62 -262.89)"/><path class="cls-1" d="M588.16,333.56c-4.84-3.76-5.78-12.93-1.79-17.41,2.16-2.42,5-2,6.69,1.22,2,3.74,1.93,7.69.89,11.68Z" transform="translate(-483.62 -262.89)"/></svg>