<?xml version="1.0" encoding="utf-8"?>
<!-- Generator: Adobe Illustrator 25.0.0, SVG Export Plug-In . SVG Version: 6.00 Build 0)  -->
<svg version="1.1" id="Calque_1" xmlns="http://www.w3.org/2000/svg" xmlns:xlink="http://www.w3.org/1999/xlink" x="0px" y="0px"
	 viewBox="0 0 3000 3000" style="enable-background:new 0 0 3000 3000;" xml:space="preserve">
<style type="text/css">
	.st0{fill:#7F08B7;}
</style>
<g>
	<path class="st0" d="M1383.1,2134.6c24.7-228.8,49-457.6,74.3-686.3c5.2-47.2,5-92-42.4-118.1c-46.2-25.4-85.4-5.1-124.3,22.7
		C919.1,1618,547.2,1882.6,175,2146.8c-38,26.9-66.1,56.6-53.7,107.5c12.6,52.1,54.3,63.5,99,68.6c129.2,14.5,258.4,29.1,387.9,41.4
		c39.2,3.7,40.2,16,21.2,45.4C551.8,2530,475.5,2651.2,398.7,2772c-46.7,73.4-38.7,145.2,20.7,185.6
		c59.9,40.7,138.1,19.8,184.5-51.5c79.9-122.9,159.7-245.9,236.8-370.6c24.6-39.7,37-33.7,59.9,0.6
		c74.9,112.2,152.2,222.9,228.9,334c26.2,37.9,53.4,73.6,109.1,58.6c53.7-14.4,65.1-55.3,70.1-102.7
		C1333.2,2595.5,1358.3,2365.1,1383.1,2134.6z"/>
	<path class="st0" d="M2826.1,415.7c-25.2-59.5-61.2-112.9-107-158.7c-45.8-45.8-99.2-81.8-158.7-107
		c-61.6-26.1-127-39.3-194.4-39.3H749.7c-67.4,0-132.8,13.2-194.4,39.3c-59.5,25.2-112.9,61.2-158.7,107
		c-45.8,45.8-81.8,99.2-107,158.7c-26.1,61.6-39.3,127-39.3,194.4v1059.8c0,19,20.8,30.8,37.1,21l126.6-75.9
		c15.4-9.2,24.8-25.8,24.8-43.7V610.1c0-171.7,139.2-310.9,310.9-310.9H2366c171.7,0,310.9,139.2,310.9,310.9v1616.2
		c0,171.7-139.2,310.9-310.9,310.9h-779.4c-15.9,0-28.7,12.9-28.7,28.7V2697c0,15.9,12.9,28.7,28.7,28.7H2366
		c67.4,0,132.8-13.2,194.4-39.3c59.5-25.2,112.9-61.2,158.7-107c45.8-45.8,81.8-99.2,107-158.7c26.1-61.6,39.3-127,39.3-194.4V610.1
		C2865.3,542.7,2852.1,477.3,2826.1,415.7z"/>
</g>
</svg>
