<?xml version="1.0" encoding="UTF-8"?>
<svg id="Calque_2" data-name="Calque 2" xmlns="http://www.w3.org/2000/svg" viewBox="0 0 199.77 199.46">
  <defs>
    <style>
      .cls-1 {
        fill: #82368c;
      }
    </style>
  </defs>
  <g id="Calque_1-2" data-name="Calque 1">
    <path class="cls-1" d="M94.65.14c81.1-4.24,133.52,86.63,88.62,154.62-39.34,59.58-127.46,59.61-166.82,0C-25.89,90.65,18.26,4.13,94.65.14ZM177.76,124.75c13.06-40.42-8.96-86.89-48.94-101.36-5.86-2.12-21.5-6.52-26.94-4.02-1.23.56-13.27,10.89-13.89,12.11-1.88,3.67-2.08,10.97,2.6,12.22,6.38,1.7,22.39-17.14,26.84-10.92,1.84,2.58-.84,6.54-2.57,8.56-3.5,4.09-9.12,7.79-14.01,9.99-3.55,1.6-11.07,2.64-13.05,5.95-1.19,1.99-.68,4.06-1.88,6.12s-5.74,5.15-7.56,7.44c-11.88,14.88,5.87,31.06,17.06,19.06,2.67-2.87,3-8.9,7.98-8.65,5.34.27,9.91,14.09,15.76,12.46,5.4-1.51.74-8.91,2.17-11.85,3.21-3.97,10.64-3.53,14.08-6.97,4.05-4.05.18-11.04,8.94-12.06,6.65-.77,20.42-2.03,17.34,8.32-2.26,7.61-17.8-1.17-23.71,9.37-4.57,8.16,8.37,6.74,11.84,7.88,2.43.8,6.64,4.93,5.91,7.75-3.31,3.96-6.99,6.19-5.86,12.17.43,2.29,10.8,12.2,13.3,13.73,4.84,2.96,8.95,3.36,14.6,2.71ZM67.58,37.01c-2.19.34-15.97,13.83-16.96,16.1-2.66,6.1,3.09,12.11,9.19,8.19,1.76-1.13,13.61-13.14,14.29-14.7,2.11-4.85-1.76-10.34-6.52-9.59ZM170.86,137.86c-9.64.68-11.63-5.71-17.51-10s-12.6-2.23-18.42-5.58c-5.5-3.16-10.72-10.93-17.06-13.94-20.64-9.79-56.07,6.74-56.1,31.01-.01,9.86,8.82,21.07,16.58,26.51,10.1,7.08,28.17-3.54,27.51,14.99,22.4-1.03,43.55-12.71,57.51-29.99,1.44-1.78,8.66-11.62,7.49-13Z"/>
  </g>
</svg>