<svg id="Calque_1" data-name="Calque 1" xmlns="http://www.w3.org/2000/svg" viewBox="0 0 510.38 510.82"><defs><style>.cls-1{fill:#feffff;}.cls-2{fill:#0b7db8;}</style></defs><path class="cls-1" d="M315.6,389.87a80.37,80.37,0,0,1,17.76-20.63c18-14.36,38.72-19.31,61.22-18,12.8.74,25.41,2.52,37.33,7.85,22.59,10.11,34.29,28.65,40.3,51.58,4.81,18.35,5.6,37.18,5.67,56,.16,42.81,0,85.62.16,128.43,0,4.74-1.45,5.77-5.91,5.72-21.32-.22-42.64-.27-63.95,0-5,.07-5.93-1.5-5.9-6.15.18-39.81.08-79.63.08-119.44a159.07,159.07,0,0,0-1.76-23.38c-3.8-25.39-19.74-37.34-45.33-34-20.14,2.66-31.68,14.4-35.74,36.49a121.09,121.09,0,0,0-2,21.84c0,39.48-.13,79,.12,118.43,0,5.28-1.53,6.23-6.39,6.17-21.48-.26-43-.2-64.45,0-3.76,0-4.77-1.08-4.76-4.8q.15-117.19,0-234.38c0-3.79,1.06-4.73,4.75-4.7,21,.18,42,.21,63,0,4.22-.05,4.9,1.49,4.81,5.16-.21,9.11-.07,18.23-.07,27.34Z" transform="translate(-43.05 -165.35)"/><path class="cls-1" d="M194.42,478.48c0,38.81-.1,77.62.12,116.43,0,5-1.46,6-6.14,5.93-21.65-.26-43.3-.19-64.95,0-3.64,0-4.85-.88-4.85-4.71q.16-117.19,0-234.37c0-3.62.77-4.83,4.64-4.8q33.23.3,66.44,0c4.23-.05,4.81,1.48,4.8,5.13Q194.33,420.27,194.42,478.48Z" transform="translate(-43.05 -165.35)"/><path class="cls-1" d="M200.39,279.89a43.75,43.75,0,0,1-44.31,43.79c-23.68-.07-43.28-19.94-43.32-43.92,0-24.34,19.78-43.84,44.45-43.76C181,236.07,200.42,255.78,200.39,279.89Z" transform="translate(-43.05 -165.35)"/><path class="cls-2" d="M548.68,658c-3.75,5.13-7.93,9.82-13.41,13.19a1.46,1.46,0,0,0-1.56.87h-.25l-.16.2a1.42,1.42,0,0,0-1.62.8l-.34.17c-7.31,2.72-14.89,2.91-22.59,2.91q-214.24-.07-428.48,0c-4,0-7.88-1-11.8-1.77L67.2,674a1.4,1.4,0,0,0-1.63-.71C53.82,667.74,46.5,658.57,43.38,646c-.1-37.61-.28-75.23-.3-112.84q-.07-118.62,0-237.22c0-30.47.08-60.93,0-91.4,0-17.42,8.12-29.33,23.75-36.45a19.12,19.12,0,0,0,1.69-1l2.08-.42,1.92-.57c32-1.3,63.93-.49,95.9-.57,54.46-.15,108.92-.06,163.38-.06l161.88,0c5.5,0,11,.09,16.49-.08a58.71,58.71,0,0,1,20.18,2.66c11.53,5.89,19.95,14.34,22.39,27.58a42.1,42.1,0,0,1,.62,7.43q0,204.12,0,408.24c0,8-.23,16,.07,24A45.35,45.35,0,0,1,548.68,658ZM315.6,389.87l-1.16-.46c0-9.11-.14-18.23.07-27.34.09-3.67-.59-5.21-4.81-5.16-21,.23-42,.2-63,0-3.69,0-4.76.91-4.75,4.7q.16,117.2,0,234.38c0,3.72,1,4.83,4.76,4.8,21.49-.17,43-.23,64.45,0,4.86.06,6.43-.89,6.39-6.17-.25-39.47-.12-78.95-.12-118.43a121.09,121.09,0,0,1,2-21.84c4.06-22.09,15.6-33.83,35.74-36.49,25.59-3.37,41.53,8.58,45.33,34a159.07,159.07,0,0,1,1.76,23.38c0,39.81.1,79.63-.08,119.44,0,4.65.89,6.22,5.9,6.15,21.31-.3,42.63-.25,63.95,0,4.46,0,5.93-1,5.91-5.72-.19-42.81,0-85.62-.16-128.43-.07-18.83-.86-37.66-5.67-56-6-22.93-17.71-41.47-40.3-51.58-11.92-5.33-24.53-7.11-37.33-7.85-22.5-1.3-43.26,3.65-61.22,18A80.37,80.37,0,0,0,315.6,389.87ZM194.42,478.48q0-58.22.07-116.44c0-3.65-.57-5.18-4.8-5.13q-33.21.34-66.44,0c-3.87,0-4.65,1.18-4.64,4.8q.15,117.18,0,234.37c0,3.83,1.21,4.74,4.85,4.71,21.65-.15,43.3-.22,65,0,4.68,0,6.17-.94,6.14-5.93C194.32,556.1,194.42,517.29,194.42,478.48Zm6-198.59c0-24.11-19.36-43.82-43.18-43.89-24.67-.08-44.48,19.42-44.45,43.76,0,24,19.64,43.85,43.32,43.92A43.75,43.75,0,0,0,200.39,279.89Z" transform="translate(-43.05 -165.35)"/></svg>