<svg id="Calque_1" data-name="Calque 1" xmlns="http://www.w3.org/2000/svg" xmlns:xlink="http://www.w3.org/1999/xlink" viewBox="0 0 298.35 254.14"><defs><style>.cls-1{font-size:13.3px;fill:#575756;font-family:Lato-Bold, Lato;font-weight:700;}.cls-2{letter-spacing:-0.09em;}.cls-3{letter-spacing:-0.03em;}.cls-4{letter-spacing:-0.01em;}.cls-5{letter-spacing:-0.08em;}.cls-6{letter-spacing:-0.01em;}.cls-7{letter-spacing:0em;}.cls-8{letter-spacing:-0.01em;}.cls-9{letter-spacing:-0.02em;}.cls-10{letter-spacing:-0.01em;}.cls-11{letter-spacing:0em;}.cls-12{letter-spacing:-0.01em;}.cls-13{letter-spacing:0em;}.cls-14{letter-spacing:-0.03em;}.cls-15{stroke:#bf79e0;opacity:0.69;fill:url(#Dégradé_sans_nom_55);}.cls-15,.cls-17{stroke-linecap:round;stroke-linejoin:round;}.cls-16{fill:#c8a7db;}.cls-16,.cls-17{opacity:0.47;}.cls-17{fill:none;stroke:#c8a7db;}.cls-18{opacity:0.56;fill:url(#Dégradé_sans_nom_64);}</style><radialGradient id="Dégradé_sans_nom_55" cx="148.79" cy="125.66" r="122.7" gradientUnits="userSpaceOnUse"><stop offset="0" stop-color="#d9a3f4"/><stop offset="1" stop-color="#fff"/></radialGradient><linearGradient id="Dégradé_sans_nom_64" x1="586.69" y1="398.87" x2="886.06" y2="612.11" gradientTransform="translate(-782.04 54.59) rotate(-30)" gradientUnits="userSpaceOnUse"><stop offset="0.62" stop-color="#8306ea"/><stop offset="0.73" stop-color="#5715d5"/><stop offset="0.85" stop-color="#3322c4"/><stop offset="0.94" stop-color="#1d29b9"/><stop offset="1" stop-color="#152cb5"/></linearGradient></defs><text class="cls-1" transform="translate(111.99 16.43)">C#-AS<tspan class="cls-2" x="38.01" y="0">P</tspan><tspan x="44.99" y="0">.NE</tspan><tspan class="cls-3" x="66.05" y="0">T</tspan></text><text class="cls-1" transform="translate(116.82 247.6)">HTML<tspan class="cls-4" x="37.71" y="0">/</tspan><tspan x="43.74" y="0">CSS</tspan></text><text class="cls-1" transform="translate(230.13 199.54)"><tspan class="cls-5">T</tspan><tspan x="6.86" y="0">yp</tspan><tspan class="cls-6" x="21.43" y="0">e</tspan><tspan class="cls-7" x="28.4" y="0">S</tspan><tspan x="35.68" y="0">cri</tspan><tspan class="cls-8" x="50.43" y="0">p</tspan><tspan x="57.89" y="0">t</tspan></text><text class="cls-1" transform="translate(24.12 199.89)"><tspan class="cls-9">J</tspan><tspan x="5.47" y="0">a</tspan><tspan class="cls-10" x="12.22" y="0">v</tspan><tspan class="cls-11" x="19.08" y="0">a</tspan></text><text class="cls-1" transform="translate(237.44 57.57)"><tspan class="cls-12">M</tspan><tspan class="cls-13" x="12.43" y="0">y</tspan><tspan class="cls-7" x="19.41" y="0">S</tspan><tspan x="26.69" y="0">ql</tspan></text><text class="cls-1" transform="translate(23.63 55.85)">PH<tspan class="cls-14" x="18.48" y="0">P</tspan></text><polygon class="cls-15" points="235.72 175.85 235.72 75.47 148.79 25.29 61.86 75.47 61.86 175.85 148.79 226.04 235.72 175.85"/><polygon class="cls-16" points="149.56 224.67 148.77 225.12 147.88 224.56 148.41 26.43 148.78 26.23 149.2 26.46 149.56 224.67"/><polygon class="cls-16" points="63.42 175.93 62.64 175.47 62.68 174.42 234.54 75.73 234.91 75.94 234.91 76.42 63.42 175.93"/><polygon class="cls-16" points="62.63 77 62.67 75.91 63.44 75.49 234.91 174.96 234.9 175.38 234.49 175.63 62.63 77"/><polygon class="cls-17" points="219.84 166.68 219.84 84.64 148.79 43.63 77.74 84.64 77.74 166.68 148.79 207.7 219.84 166.68"/><polygon class="cls-17" points="200.91 155.75 200.91 95.57 148.79 65.48 96.67 95.57 96.67 155.75 148.79 185.84 200.91 155.75"/><polygon class="cls-18" points="148.78 34.55 70.36 80.53 98.43 154.71 148.93 221.51 221.84 169.01 207.29 90.11 148.78 34.55"/></svg>