<svg id="Calque_1" data-name="Calque 1" xmlns="http://www.w3.org/2000/svg" viewBox="0 0 214.02 106.62"><defs><style>.cls-1{fill:#2a4191;}.cls-2{fill:#734494;}</style></defs><path class="cls-1" d="M278.85,205.66c-4.31,1.52-8.45.39-12.55.17-8.68-.47-17.35-1.19-26-1.91a2.74,2.74,0,0,0-3,1.59A26.25,26.25,0,0,0,234,223.14a5,5,0,0,0,1.18,2.46c6,7.43,8.92,16.06,10.08,25.39.42,3.33-.57,4.44-4,4.56-3.81.14-7.61.29-11.42.39-2.94.08-4.4-1.85-3.37-4.65a44.68,44.68,0,0,0,1.7-26.19,30,30,0,0,1,2.21-19.84c.83-1.76.25-1.95-1.36-2-4.47-.24-8.93-.64-13.4-1-2.41-.19-4.28-1.25-4.89-3.7s.59-4.21,2.54-5.6q23-16.42,45.95-32.9a17.6,17.6,0,0,1,12.15-3.42c18.73,1.41,37.47,2.7,56.21,4,2.46.17,4.54.94,5.26,3.56s-.54,4.37-2.57,5.82q-23.24,16.6-46.44,33.24A12,12,0,0,1,278.85,205.66Zm44.4-38.39a1.47,1.47,0,0,0-1.46-.74l-52.12-3.8a9.18,9.18,0,0,0-6.18,1.9q-17.82,12.78-35.62,25.58c-2.52,1.81-5,3.67-8.15,6,5.55.43,10.33.82,15.1,1.16a1.6,1.6,0,0,0,1.07-.58c3.36-3.78,7.69-6.34,11.67-9.33q9.84-7.37,19.8-14.59c2.52-1.84,4.5-1.45,5.37.88.69,1.88-.25,3-1.66,4.06q-9.19,6.75-18.37,13.54l-8.22,6.07a1.7,1.7,0,0,0,1.65.67q13.65,1,27.31,2.11a10.34,10.34,0,0,0,7.12-2.13c10-7.23,20.05-14.4,30.07-21.6C314.86,173.4,319.06,170.31,323.25,167.27Zm-87.54,72.11-1.42,7.4c-.6,3.1-.6,3.13,2.61,2.83.7-.07,2,.35,1.74-1.11C238.13,245.49,237.84,242.38,235.71,239.38Z" transform="translate(-210.59 -156.56)"/><path class="cls-1" d="M312.16,224.14a41,41,0,0,1-6,4.44c-9.4,5.78-19.74,8.89-30.55,10.52a46.43,46.43,0,0,1-17.42-.35c-2.63-.6-4.05-1.81-4.45-4.63-.9-6.28-2.11-12.52-3.16-18.79-.74-4.47-.71-4.42-5.29-4.43-1.28,0-1.64.31-1.41,1.59,1.45,8.08,3,16.16,4.18,24.28.61,4.15,3.06,6.22,6.7,7.37a30,30,0,0,0,4.19,1c10.16,1.62,20.06.22,31.13-2.92a65.69,65.69,0,0,0,13.24-5,72.42,72.42,0,0,0,6.49-3.53Z" transform="translate(-210.59 -156.56)"/><path class="cls-1" d="M314.22,215.66l2.39-9.82c-1.34-4.24-3.3-8.22-4.71-12.42-.18-.54-.59-1.5-1-1.27a25.54,25.54,0,0,0-4.16,2.85c-1,.81-.08,1.77.22,2.54Q310.52,206.63,314.22,215.66Z" transform="translate(-210.59 -156.56)"/><path class="cls-2" d="M328.07,179.63c3.53-6.29,9.69-8.32,15.63-6.35,2.83.94,5.84,1.35,8.72,2.16,1.63.46,2.25-.05,2.55-1.62a57,57,0,0,1,1.5-6.06c1.88-6.12,6.9-9.13,13.15-7.71q13.39,3,26.73,6.38c6.43,1.6,9.56,6.69,8.3,13.23-.37,2-.82,3.92-1.38,5.84-.43,1.46,0,2.1,1.47,2.42,3.42.73,6.82,1.59,10.22,2.41a12.18,12.18,0,0,1,9.37,14.51c-1.21,5.62-2.7,11.17-3.94,16.78-.34,1.48-.95,1.56-2.24,1.25q-47.49-11.42-95-22.75Zm50.45,2,8.74,2.09c7.11,1.7,7.09,1.69,8.35-5.59.25-1.4-.07-2.26-1.5-2.61l-26.48-6.32c-1.43-.34-2.21.23-2.51,1.65a47.59,47.59,0,0,1-1.18,4.85c-.58,1.73-.2,2.51,1.7,2.9C370,179.49,374.23,180.61,378.52,181.63Z" transform="translate(-210.59 -156.56)"/><path class="cls-2" d="M321.61,206.63q17.25,4.06,34.51,8.11c1.34.31,1.5,1,1.18,2.16-.4,1.45-.76,2.9-1,4.38-.59,3.22.51,5.68,3.53,6.88a54.17,54.17,0,0,0,14.5,3.49c3.5.37,5.55-1.41,6.54-4.84.52-1.82.19-4.38,1.69-5.28s3.8.47,5.71.92c9.41,2.18,18.79,4.49,28.19,6.67,1.53.35,2,.81,1.59,2.47-1.85,7.34-3.5,14.74-5.33,22.09a12.24,12.24,0,0,1-15.1,9.12c-23.73-5.65-47.42-11.45-71.19-16.89-6-1.38-11.1-5.77-11-13.3Z" transform="translate(-210.59 -156.56)"/></svg>