<svg id="Calque_1" data-name="Calque 1" xmlns="http://www.w3.org/2000/svg" viewBox="0 0 253.63 290"><defs><style>.cls-1{fill:#183153;}.cls-2{fill:#193153;}</style></defs><path class="cls-1" d="M684,529H578.24c-14.59,0-22.35-8.24-21.5-22.78,2.9-49.73,36.13-86.71,85.15-94,9.28-1.38,18.88-.74,28.34-.76,16.3,0,32.63-.38,48.91.38,43.49,2.05,81.64,36.06,89.19,79,.9,5.14,1.4,10.36,1.86,15.57C811.39,519.72,803,529,789.66,529Q736.8,529,684,529Z" transform="translate(-556.68 -239)"/><path class="cls-2" d="M610.94,311.48c0-40.85,31.85-72.53,72.81-72.48A71.94,71.94,0,0,1,756,311.52c0,40.69-32.08,72.54-72.92,72.48C642.63,383.93,610.92,352.06,610.94,311.48Z" transform="translate(-556.68 -239)"/></svg>