<svg id="Calque_1" data-name="Calque 1" xmlns="http://www.w3.org/2000/svg" viewBox="0 0 239.63 230"><defs><style>.cls-1{fill:#193255;}.cls-2{fill:#1a3355;}</style></defs><path class="cls-1" d="M693.8,499H603c-23.81,0-39.31-16.86-39.35-43.11q-.1-84.31,0-168.64c0-11.43,5.64-18.23,14.94-18.24s15.08,6.85,15.08,18.19q0,83.22,0,166.45c0,10.54,1.76,12.5,11.22,12.5q91.3,0,182.61,0c11.14,0,17.89,9.56,15.1,21.23-1.74,7.24-7.3,11.6-15,11.61Q740.7,499,693.8,499Z" transform="translate(-563.6 -269)"/><path class="cls-2" d="M676,326.72c4.93-.28,8.68,2.07,11.95,5.76,7.43,8.36,15,16.55,22.29,25,2.38,2.77,3.68,2.84,6.16.05,15-16.84,30.09-33.5,45.22-50.17,4.72-5.21,10.31-7,16.81-4.55,6,2.28,9,7.17,9.72,13.85a17.43,17.43,0,0,1-4.62,13.91c-19.6,21.55-39.16,43.16-58.89,64.58-6.92,7.52-16,7.18-23-.47-7.76-8.5-15.49-17-23-25.78-2.18-2.53-3.3-2.34-5.41.05Q654.21,390.36,635,411.43c-5.54,6.09-12.74,7.18-19.12,3.28-5.7-3.49-8.43-10.73-6.92-18.34a17.39,17.39,0,0,1,4.39-8.43q25.53-28.06,51.1-56.1C667.64,328.33,671.43,326.36,676,326.72Z" transform="translate(-563.6 -269)"/></svg>