<svg id="Calque_1" data-name="Calque 1" xmlns="http://www.w3.org/2000/svg" viewBox="0 0 147.01 201.1"><defs><style>.cls-1{fill:#724393;}</style></defs><path class="cls-1" d="M219.66,438.92c-3.19-3-6-5.49-8.75-8.16-9.13-9-6.82-22.28,4.85-27.46,2.4-1.06,3.25-1.57,1.62-4.37-4.66-8-3.15-16.22,3.38-21.55,6.35-5.19,15.24-4.55,22.19,1.82,2.06,1.89,2.67,2.06,4-.83,5.44-12.21,18.56-14.32,28.11-4.71q20.6,20.71,41.17,41.47c1.15,1.15,2.36,2.23,3.5,3.31,1.83-1,1.18-2.5,1.19-3.7.05-6.5-.13-13,.06-19.49a15,15,0,0,1,14.56-14.85c8.95-.23,15.95,5.39,16.07,14.13.28,22,1.79,44.07-.58,65.9-2.74,25.23-17.18,43.23-40.81,52.31-24,9.24-46.69,5.15-66.06-12-11.82-10.47-22.77-22-33.85-33.25-8.4-8.57-5.81-21.43,5-26.62C216.43,440.28,217.64,439.8,219.66,438.92Zm126.08-13.7c0-10,.23-20-.09-30-.17-5.28-3.31-8.32-7.79-8.84-6.73-.79-11.08,3.28-11.19,10.77-.13,8.82,0,17.64-.07,26.47,0,2,1,4.65-1.72,5.7s-4.19-1.2-5.83-2.84q-24.35-24.36-48.73-48.72c-5.08-5.07-11-5.5-15.39-1.22s-4,10.27,1,15.35q13.23,13.24,26.47,26.49c2.06,2.06,5.47,4.52,2.58,7.37-2.7,2.67-5-.81-6.94-2.71C265,410.06,252,397,238.89,383.9c-4.75-4.74-10.82-5.14-15-1.11-4.56,4.36-4.3,10.19.77,15.28q20.08,20.16,40.22,40.28c1.81,1.81,4,3.86,1.48,6.28-2.39,2.27-4.2-.15-5.82-1.77q-15.39-15.33-30.74-30.7c-4.86-4.85-11.26-5.32-15.45-1.18s-3.89,10.29,1.17,15.36c10.33,10.39,20.72,20.71,31.05,31.09,1.54,1.55,3.36,3.42,1.38,5.58-2.2,2.39-4.18.68-5.92-1.07-4.35-4.36-8.67-8.75-13.08-13.06s-10.52-4.51-14.66-.43c-3.93,3.87-3.82,10.44.4,14.72,10.41,10.55,20.58,21.35,31.39,31.47,17.09,16,37.37,20.82,59.57,13.52,21-6.9,34.15-21.79,38.83-43.62C347.23,451.55,345.37,438.33,345.74,425.22Z" transform="translate(-205.28 -316.46)"/><path class="cls-1" d="M235.16,352.75c.06,1.34-.15,2.44-1.33,3.1a2.54,2.54,0,0,1-3.22-.3q-9.56-9.71-19-19.53a2.49,2.49,0,0,1-.09-3.61c1.15-1.12,2.87-1.56,4.06-.38,6.42,6.42,12.72,13,19,19.48A3.61,3.61,0,0,1,235.16,352.75Z" transform="translate(-205.28 -316.46)"/><path class="cls-1" d="M290.54,322.37c.27,1.22-.43,2.37-1,3.56-3.44,6.83-6.93,13.62-10.27,20.49-1.07,2.21-2.6,4-4.92,2.91-2.53-1.23-1.44-3.74-.47-5.68,3.47-7,7-13.93,10.54-20.91.8-1.59,1.73-2.88,3.74-2.67A2.38,2.38,0,0,1,290.54,322.37Z" transform="translate(-205.28 -316.46)"/><path class="cls-1" d="M248.61,333.49c-.67-4.28-1.3-8.56-2-12.83-.34-2-.09-3.85,2.26-4.17,2-.27,3,1.21,3.26,3q2.06,13.07,4,26.14c.27,1.78-.13,3.54-2.15,3.93-2.42.46-3.11-1.3-3.41-3.29C250,342,249.27,337.76,248.61,333.49Z" transform="translate(-205.28 -316.46)"/></svg>