<svg id="Calque_1" data-name="Calque 1" xmlns="http://www.w3.org/2000/svg" viewBox="0 0 349.93 348.06"><defs><style>.cls-1{fill:#2197e7;}.cls-2{fill:#0577c5;}.cls-3{fill:#0564a5;}</style></defs><path class="cls-1" d="M681.48,237.86c5.91-3.93,11.81-2.57,17.61.19,22.41,10.68,44.73,21.56,67.22,32.09,11.3,5.29,16.46,13.51,16.41,26.2q-.37,113.79,0,227.6c0,10.37-3.25,18.59-12.43,23.17-23.79,11.9-47.83,23.31-71.84,34.78-3.18,1.52-6.74,2.35-10.28.58,1.49-7,8.44-10.93,8-19.81-1.27-25.63-.59-51.36-.67-77.06q-.11-76.17-.2-152.33.18-39.12.38-78.24C695.72,245.34,692,238.83,681.48,237.86Z" transform="translate(-432.79 -235.41)"/><path class="cls-2" d="M695.49,485.6c.08,25.7-.6,51.43.67,77.06.44,8.88-6.51,12.82-8,19.81-7.31,1.45-12.57-2.08-17.68-6.76q-63.86-58.55-127.83-117c-3.34-3.06-6.59-5.78-11.23-6.31-10.34-18.64-27.12-30.82-43.55-43.34-15.76-14.24-31.66-28.34-47.25-42.77-10.5-9.72-10.33-18.16-.17-28.45,23.25-23.52,23.78-23.63,50.08-4.26,11.77,8.67,23.37,17.59,34.93,26.54,3.88,3,7.48,6.33,12.86,6,14.37,19.1,35.24,30.09,54.22,43.42,30.64,26.2,63.85,49.06,95.6,73.81C690.28,485.06,692.62,486.27,695.49,485.6Z" transform="translate(-432.79 -235.41)"/><path class="cls-3" d="M592.54,409.58c-19-13.33-39.85-24.32-54.22-43.42q46-42.56,92.08-85.09c13.28-12.24,26.75-24.27,40.06-36.48,3.27-3,6.23-6.31,11-6.72,10.49,1,14.24,7.47,14.19,17.16q-.21,39.12-.38,78.23c-2.11.46-4.71.28-6.25,1.46Q640.69,372,592.54,409.58Z" transform="translate(-432.79 -235.41)"/><path class="cls-3" d="M487.87,409.08c16.43,12.52,33.21,24.7,43.55,43.34-3,8.13-11,11.05-17.11,15.92-7.27,5.81-14.83,11.25-22.21,16.92-26.85,20.62-27.89,20.57-51.38-3-10.64-10.65-10.27-18.69,1-29.32C457.13,438.4,474,425.35,487.87,409.08Z" transform="translate(-432.79 -235.41)"/></svg>