<svg id="Calque_1" data-name="Calque 1" xmlns="http://www.w3.org/2000/svg" viewBox="0 0 347.83 270.01"><defs><style>.cls-1{fill:#183154;}.cls-2{fill:#183153;}</style></defs><path class="cls-1" d="M846.81,433.85c55.72,0,111.45.07,167.17-.12,5.18,0,6.81,1,6.79,6.55-.22,57.64-.12,115.28-.14,172.92,0,21.21-11.75,32.8-33.11,32.8H705.91c-21,0-32.58-11.5-32.59-32.55,0-57.85.07-115.71-.15-173.57,0-5.33,1.74-6.14,6.47-6.13Q763.24,434,846.81,433.85Zm-67.5,173.58c18.83,0,37.65.06,56.47,0,8.08,0,11.69-4.29,10.79-12.24-1.69-14.9-12.78-25.95-27.63-26.17-26.31-.39-52.62-.35-78.93,0a28.42,28.42,0,0,0-27.63,24.73c-1.31,9.68,2.09,13.7,11.74,13.72C742.52,607.46,760.92,607.43,779.31,607.43Zm-.06-135c-20.76.08-38.55,18-38.45,38.71s18,38.52,38.72,38.44S818,531.68,817.9,510.86,800.05,472.35,779.25,472.42Zm153.88,19.29c12.19,0,24.37,0,36.55,0,8.06,0,12.27-3.48,12.15-9.86-.12-6.12-4.2-9.4-12-9.41q-36.23,0-72.45,0c-7.68,0-11.7,3.35-11.77,9.54s3.93,9.69,11.57,9.73C909.2,491.75,921.16,491.71,933.13,491.71Zm.39,38.57c12.18,0,24.37,0,36.55,0,7.6,0,11.75-3.47,11.79-9.6s-4.1-9.65-11.72-9.66q-36.55-.06-73.1,0c-7.54,0-11.51,3.58-11.36,9.92.13,6,4,9.3,11.29,9.34C909.15,530.33,921.34,530.28,933.52,530.28Zm.78,19.29c-12.18,0-24.36,0-36.55,0-8.11,0-12.19,3.39-12.08,9.86.1,6.21,4.06,9.41,11.87,9.42q36.23,0,72.46,0c7.64,0,11.77-3.4,11.85-9.53s-4.05-9.69-11.64-9.73C958.24,549.53,946.27,549.57,934.3,549.57Z" transform="translate(-673.13 -375.99)"/><path class="cls-2" d="M846.82,414.56c-55.5,0-111-.07-166.52.11-5.28,0-7.32-.73-7.17-6.77.52-20.11,12-31.9,32.12-31.9H988.79c20.85,0,34.16,14.87,31.92,35.35-.28,2.55-1.12,3.4-3.51,3.23-1.49-.11-3,0-4.5,0Z" transform="translate(-673.13 -375.99)"/></svg>