<svg id="Calque_1" data-name="Calque 1" xmlns="http://www.w3.org/2000/svg" viewBox="0 0 200.08 149.77"><defs><style>.cls-1{fill:#2a4092;}.cls-2{fill:#2a4092;}</style></defs><path class="cls-1" d="M227.8,95c5-14.67,13-20.44,28.55-20.44q71.11,0,142.24,0c15,0,24.74,7.09,27.71,20a28.84,28.84,0,0,1,.53,6.44q0,48.15,0,96.3c0,16.49-10.61,27-27.25,27q-71.88,0-143.74,0c-15.17,0-23.34-5.95-28-20.4Q227.83,149.43,227.8,95Zm99.52-1.68H254c-2.65,0-5.35-.16-7.06,2.61-2.43,3.92-1.37,11.92,2.2,14.87q31.94,26.29,63.94,52.53c8.46,6.9,20.26,6.76,29-.37q31.83-26.05,63.47-52.34c3-2.51,4.27-8.75,2.76-13.13s-5-4.19-8.6-4.19Q363.48,93.33,327.32,93.3Zm-.26,112.51q36.45,0,72.88,0c6.23,0,8.61-1.82,8.64-7.09.11-20.8.05-41.59,0-62.39,0-.92.43-2.12-.66-2.7s-1.84.41-2.59,1c-1.46,1.1-2.87,2.27-4.28,3.43-15.39,12.7-30.63,25.58-46.2,38-18.32,14.68-37.9,14.38-55.92-.43q-24.27-19.95-48.52-39.95c-1.11-.91-2.28-2.69-3.7-2.12-1.89.77-.9,3-.91,4.47q-.09,29.19,0,58.39c0,7.64,1.72,9.37,9.39,9.37Q291.12,205.83,327.06,205.81Z" transform="translate(-226.78 -74.53)"/><path class="cls-2" d="M227.8,95q0,54.45,0,108.91c-1.35-1.74-1-3.8-1-5.77q0-48.68,0-97.35C226.8,98.79,226.53,96.75,227.8,95Z" transform="translate(-226.78 -74.53)"/></svg>